<?xml version="1.0" standalone="no"?><!DOCTYPE svg PUBLIC "-//W3C//DTD SVG 1.1//EN" "http://www.w3.org/Graphics/SVG/1.1/DTD/svg11.dtd"><svg t="1774262360766" class="icon" viewBox="0 0 1024 1024" version="1.1" xmlns="http://www.w3.org/2000/svg" p-id="1730" data-spm-anchor-id="a313x.search_index.0.i0.3abc3a81M1HbIN" xmlns:xlink="http://www.w3.org/1999/xlink" width="200" height="200"><path d="M170.666667 824.888889h113.777777v-113.777778H170.666667v113.777778z m369.777777-266.837333v78.506666c0 9.784889 7.879111 17.664 17.607112 17.664h78.563555a17.635556 17.635556 0 0 0 17.607111-17.635555v-78.535111a17.607111 17.607111 0 0 0-17.607111-17.607112h-78.563555a17.607111 17.607111 0 0 0-17.607112 17.607112zM899.384889 654.222222h78.563555a17.635556 17.635556 0 0 0 17.607112-17.635555v-78.535111a17.607111 17.607111 0 0 0-17.607112-17.607112h-78.563555a17.607111 17.607111 0 0 0-17.607111 17.607112v78.506666c0 9.784889 7.879111 17.664 17.607111 17.664z m-35.271111 227.555556h-78.506667a17.635556 17.635556 0 0 0-17.607111 17.635555v78.506667c0 9.756444 7.879111 17.635556 17.607111 17.635556h192.341333a17.635556 17.635556 0 0 0 17.607112-17.635556v-192.312889a17.635556 17.635556 0 0 0-17.607112-17.607111h-78.563555a17.635556 17.635556 0 0 0-17.607111 17.607111v78.535111a17.635556 17.635556 0 0 1-17.635556 17.635556zM654.222222 671.800889v192.341333a17.635556 17.635556 0 0 0 17.635556 17.607111h78.506666a17.635556 17.635556 0 0 0 17.635556-17.607111v-192.341333a17.635556 17.635556 0 0 0-17.635556-17.607111h-78.506666a17.635556 17.635556 0 0 0-17.635556 17.607111zM558.051556 995.555556h78.563555a17.635556 17.635556 0 0 0 17.607111-17.635556v-78.506667a17.635556 17.635556 0 0 0-17.607111-17.635555h-78.563555a17.635556 17.635556 0 0 0-17.607112 17.635555v78.506667c0 9.756444 7.879111 17.635556 17.607112 17.635556zM711.111111 284.444444h113.777778V170.666667h-113.777778v113.777777zM115.2 625.777778h253.155556c16.497778 0 29.866667 13.368889 29.866666 29.866666v253.155556c0 16.554667-13.368889 29.866667-29.866666 29.866667h-253.155556A29.866667 29.866667 0 0 1 85.333333 908.8v-253.155556c0-16.497778 13.425778-29.866667 29.866667-29.866666zM29.297778 1024H454.257778C470.471111 1024 483.555556 1010.915556 483.555556 994.730667V569.742222C483.555556 553.528889 470.471111 540.444444 454.286222 540.444444H29.297778C13.084444 540.444444 0 553.528889 0 569.713778V994.702222C0 1010.915556 13.084444 1024 29.269333 1024zM170.666667 284.444444h113.777777V170.666667H170.666667v113.777777z m738.161777 113.777778h-253.155555C639.146667 398.222222 625.777778 384.853333 625.777778 368.355556V115.256889C625.777778 98.759111 639.203556 85.333333 655.644444 85.333333h253.184C925.326222 85.333333 938.666667 98.759111 938.666667 115.256889v253.098667c0 16.497778-13.312 29.866667-29.838223 29.866666zM540.444444 29.269333V454.257778c0 16.184889 13.084444 29.269333 29.269334 29.269333H994.702222C1010.915556 483.555556 1024 470.471111 1024 454.286222V29.297778C1024 13.084444 1010.915556 0 994.730667 0H569.742222C553.528889 0 540.444444 13.084444 540.444444 29.269333zM115.2 85.333333h253.155556c16.497778 0 29.866667 13.425778 29.866666 29.923556v253.098667c0 16.497778-13.368889 29.866667-29.866666 29.866666h-253.155556C98.759111 398.222222 85.333333 384.853333 85.333333 368.355556V115.256889C85.333333 98.759111 98.759111 85.333333 115.2 85.333333zM29.297778 483.555556H454.257778C470.471111 483.555556 483.555556 470.471111 483.555556 454.286222V29.297778C483.555556 13.084444 470.471111 0 454.286222 0H29.297778C13.084444 0 0 13.084444 0 29.269333V454.257778C0 470.471111 13.084444 483.555556 29.269333 483.555556z" fill="#FFA940" p-id="1731"></path></svg>